<?xml version="1.0" standalone="no"?>
<!DOCTYPE svg PUBLIC "-//W3C//DTD SVG 20010904//EN"
 "http://www.w3.org/TR/2001/REC-SVG-20010904/DTD/svg10.dtd">
<svg version="1.0" xmlns="http://www.w3.org/2000/svg"
 width="2550.000000pt" height="3300.000000pt" viewBox="0 0 2550.000000 3300.000000"
 preserveAspectRatio="xMidYMid meet">

<g transform="translate(0.000000,3300.000000) scale(0.100000,-0.100000)"
fill="#000000" stroke="none">
<path d="M12420 28249 c-1986 -78 -3871 -904 -5285 -2314 -1174 -1172 -1952
-2671 -2225 -4290 -72 -427 -100 -741 -107 -1210 -8 -497 18 -916 83 -1335
228 -1483 858 -2851 1840 -3995 71 -83 163 -190 204 -240 407 -484 913 -955
1420 -1320 83 -60 166 -122 183 -136 41 -36 360 -238 527 -334 151 -88 486
-261 630 -326 52 -24 97 -47 100 -51 18 -24 649 -270 792 -308 23 -7 45 -15
48 -19 9 -14 453 -134 746 -202 121 -28 467 -86 649 -108 513 -65 1142 -82
1605 -46 524 42 1021 126 1475 251 209 57 368 105 400 120 17 7 86 33 155 58
228 80 600 230 610 246 3 4 34 20 70 35 84 35 389 185 460 226 30 17 123 70
205 117 160 90 491 297 497 310 2 4 48 39 102 77 757 525 1440 1205 1978 1970
290 412 539 841 726 1255 409 903 625 1734 714 2745 17 192 17 954 0 1160 -48
596 -141 1116 -291 1638 -390 1350 -1111 2544 -2125 3516 -179 172 -248 233
-585 526 -621 538 -1255 950 -1952 1269 -970 443 -1941 672 -3024 716 -274 11
-335 11 -625 -1z m1050 -979 c855 -53 1721 -263 2510 -612 372 -164 817 -416
1167 -660 393 -274 751 -589 1089 -959 158 -173 404 -487 519 -664 22 -33 61
-90 87 -128 27 -37 48 -71 48 -75 0 -5 21 -41 48 -82 26 -40 46 -75 46 -79 -1
-3 11 -24 26 -46 15 -22 42 -64 58 -92 17 -29 39 -65 49 -80 10 -15 12 -24 5
-19 -7 4 3 -17 23 -48 19 -30 35 -57 35 -60 0 -3 14 -28 30 -54 17 -27 30 -54
30 -60 0 -7 47 -101 105 -211 57 -109 106 -210 109 -224 2 -14 36 -96 75 -182
39 -86 71 -158 71 -161 0 -3 29 -78 65 -168 165 -416 255 -759 324 -1241 103
-718 103 -1398 0 -2119 -217 -1523 -918 -2942 -1999 -4050 -1025 -1051 -2332
-1767 -3764 -2061 -763 -157 -1540 -190 -2331 -99 -1230 141 -2396 595 -3412
1326 -191 137 -278 213 -527 458 -558 548 -997 1137 -1326 1775 -124 240 -309
652 -330 735 -5 19 -27 87 -50 150 -23 63 -48 135 -54 160 -7 25 -32 110 -56
190 -23 80 -43 156 -45 170 -1 14 -11 61 -23 105 -26 100 -46 200 -67 335 -9
58 -21 128 -26 155 -5 28 -11 70 -14 95 -2 25 -7 63 -10 85 -13 104 -22 182
-22 205 -1 76 -16 296 -20 304 -9 14 -4 948 6 960 4 6 11 80 15 165 4 85 11
186 16 225 5 39 17 136 26 216 57 520 212 1165 396 1653 33 87 61 168 62 180
3 23 91 234 157 375 21 46 34 80 28 77 -5 -4 17 48 51 114 33 67 58 121 55
121 -6 0 43 98 85 171 18 29 33 61 35 70 3 14 41 88 74 144 3 6 6 15 7 20 1 6
20 40 43 77 23 37 41 70 41 72 0 4 56 96 147 241 24 39 49 79 56 90 35 57 125
186 157 225 20 25 39 52 42 60 8 20 163 218 280 354 140 166 534 555 703 696
705 590 1446 1008 2300 1300 607 207 1285 343 1890 379 204 12 694 12 885 1z"/>
<path d="M15290 24279 c-869 -76 -1559 -501 -2055 -1264 -39 -60 -113 -182
-165 -270 -371 -639 -861 -1364 -1277 -1887 l-54 -68 -989 0 -990 0 0 -580 0
-580 93 0 94 0 2 -42 c2 -24 3 -50 3 -58 1 -25 25 -112 42 -154 9 -22 14 -41
12 -43 -2 -3 2 -20 10 -39 16 -39 21 -34 -66 -58 -235 -64 -515 -70 -777 -17
-210 44 -284 80 -478 237 -212 171 -338 340 -443 594 -157 380 -120 876 94
1237 153 259 431 509 709 638 124 58 291 118 405 145 52 12 121 28 153 36 32
8 70 14 83 14 14 0 77 12 140 26 252 56 349 148 396 373 16 81 20 136 20 353
0 375 -24 528 -98 635 -39 56 -133 127 -184 138 l-30 7 0 160 0 161 -287 -6
c-159 -4 -335 -11 -393 -17 -834 -81 -1485 -357 -1999 -846 -562 -534 -842
-1326 -818 -2309 6 -230 18 -345 57 -531 20 -100 84 -332 101 -369 14 -30 69
-208 69 -222 0 -7 4 -13 9 -13 5 0 21 -35 36 -77 14 -43 35 -94 45 -113 10
-19 35 -66 55 -105 40 -79 119 -214 134 -232 6 -6 25 -35 43 -64 18 -30 39
-60 46 -69 8 -8 36 -46 64 -85 27 -38 53 -72 57 -75 4 -3 21 -25 39 -50 17
-25 45 -60 62 -79 281 -313 445 -468 697 -658 99 -75 257 -183 268 -183 3 0
28 -15 57 -34 150 -95 483 -239 699 -301 603 -174 1283 -163 1938 30 154 45
431 153 529 206 41 21 77 39 82 39 5 0 43 20 84 45 42 25 79 45 82 45 3 0 25
14 49 30 24 17 46 30 50 30 6 0 140 91 268 182 79 57 187 146 200 166 4 6 14
12 21 12 6 0 29 20 50 45 22 25 42 45 47 45 10 0 209 200 209 211 0 5 5 9 11
9 6 0 42 30 80 67 38 37 75 68 81 68 7 0 28 6 45 14 68 28 63 130 63 -1229 l0
-1230 149 0 149 0 18 -47 c22 -57 82 -134 135 -173 81 -58 247 -90 473 -90
313 0 464 69 551 252 41 86 56 151 90 388 13 96 29 202 35 235 15 89 30 224
30 272 0 24 4 43 9 43 5 0 12 55 15 123 4 67 13 181 21 252 23 214 35 438 45
870 10 419 19 517 55 571 21 33 39 30 85 -13 51 -50 311 -402 350 -474 l30
-57 0 -556 0 -556 84 0 83 0 13 -45 c7 -25 17 -48 21 -51 5 -3 16 -20 25 -39
25 -54 92 -113 171 -152 58 -28 96 -39 188 -51 101 -14 148 -14 378 -4 629 30
1101 144 1586 386 119 60 162 83 235 130 28 18 59 35 68 39 10 3 66 39 124 79
58 40 116 80 127 88 12 8 42 31 67 50 25 20 61 48 81 61 35 23 232 195 308
269 86 83 237 252 293 330 18 25 38 50 44 55 6 6 29 39 50 75 21 36 44 70 51
75 6 6 26 39 45 75 18 36 38 70 45 75 6 6 28 51 49 100 21 50 43 97 49 105 15
19 50 109 70 178 9 28 20 52 24 52 5 0 16 30 25 68 9 37 23 81 30 97 8 17 21
68 31 115 9 47 20 92 25 101 4 8 17 89 29 180 12 90 29 207 38 259 21 120 24
673 4 880 -38 400 -103 721 -211 1034 -46 134 -59 162 -183 401 -94 184 -147
274 -178 310 -9 11 -43 56 -75 100 -31 44 -64 85 -74 92 -9 6 -36 37 -59 67
-24 30 -46 54 -50 53 -4 -1 -43 35 -85 81 -43 45 -83 82 -88 82 -5 0 -44 32
-86 71 -43 39 -86 74 -97 79 -11 4 -43 25 -70 47 -28 22 -57 42 -67 45 -9 4
-46 27 -82 53 -36 25 -66 43 -66 41 0 -3 -25 10 -55 29 -30 19 -59 35 -64 35
-6 0 -32 13 -58 28 -26 15 -75 40 -109 54 -33 14 -114 59 -180 101 -468 293
-976 462 -1574 522 -187 19 -625 27 -770 14z m940 -2039 c323 -28 642 -133
782 -258 26 -24 51 -55 54 -68 3 -13 13 -24 21 -24 8 0 11 -4 8 -10 -3 -5 -32
-10 -64 -10 -83 0 -364 -28 -521 -51 -955 -143 -1597 -530 -1846 -1112 -30
-72 -43 -93 -48 -80 -4 10 -12 84 -18 166 -12 164 0 357 26 462 54 206 297
524 541 705 292 216 665 314 1065 280z m1137 -1484 c45 -8 96 -22 112 -31 l31
-16 0 -199 c0 -214 -9 -279 -55 -410 -108 -301 -353 -564 -646 -691 -160 -69
-354 -109 -533 -109 -74 0 -81 2 -126 35 -88 65 -170 194 -206 325 -28 103
-26 312 4 410 39 123 124 261 221 357 78 78 240 168 408 226 109 38 328 91
342 82 5 -2 33 0 62 5 55 10 206 26 269 29 19 0 72 -6 117 -13z"/>
<path d="M3764 11575 c-280 -43 -499 -179 -642 -398 -63 -97 -105 -203 -132
-337 -20 -99 -21 -125 -17 -654 3 -524 4 -555 24 -627 81 -291 244 -491 495
-608 45 -22 115 -47 153 -57 60 -15 116 -42 135 -65 8 -10 67 -39 144 -70 213
-88 490 -74 711 35 160 80 271 192 351 355 87 177 109 366 101 869 -5 333 -6
351 -31 452 -15 58 -35 124 -46 147 -11 24 -20 46 -20 51 0 4 -18 38 -39 75
-22 37 -49 103 -61 149 -69 266 -224 465 -455 585 -190 98 -439 134 -671 98z
m159 -514 c-150 -54 -311 -188 -387 -321 l-37 -65 7 45 c32 211 204 356 424
359 l45 0 -52 -18z m426 -230 c40 -93 42 -129 39 -641 -3 -487 -3 -496 -25
-550 -28 -69 -85 -144 -140 -186 -123 -94 -345 -111 -489 -38 l-51 26 -12 71
c-34 207 -38 694 -7 843 32 153 83 257 170 351 106 114 240 172 397 173 l97 0
21 -49z"/>
<path d="M17913 11579 c-422 -55 -726 -343 -798 -758 -22 -122 -22 -1070 0
-1194 53 -306 236 -550 507 -676 45 -22 106 -45 133 -52 28 -6 81 -32 119 -57
146 -96 292 -136 496 -135 173 1 257 19 395 87 160 80 271 192 351 355 87 177
109 366 101 869 -5 333 -6 351 -31 452 -15 58 -35 124 -46 147 -11 24 -20 46
-20 51 0 4 -18 38 -39 75 -22 37 -49 103 -61 149 -69 266 -224 465 -455 585
-182 94 -424 132 -652 102z m100 -522 c-29 -13 -55 -26 -59 -30 -4 -4 -14 -7
-21 -7 -41 0 -194 -135 -254 -223 -32 -48 -40 -55 -35 -32 36 146 172 274 327
304 83 16 98 12 42 -12z m427 -186 c19 -5 31 -22 50 -66 l25 -60 0 -525 c0
-521 0 -525 -22 -580 -46 -112 -132 -199 -240 -241 -80 -32 -261 -34 -341 -4
-77 28 -87 41 -103 137 -22 130 -18 706 5 813 9 44 19 91 22 105 9 45 67 164
106 217 90 123 266 211 423 211 28 0 61 -3 75 -7z"/>
<path d="M5350 10225 l0 -1335 231 0 c216 0 233 -1 256 -20 36 -28 88 -26 119
5 39 39 54 87 64 208 27 299 44 369 115 465 23 32 65 75 93 95 105 78 193 102
436 122 99 8 209 22 245 31 229 56 407 219 477 439 36 114 35 271 -2 383 -29
87 -65 163 -99 207 -12 17 -25 52 -29 79 -39 259 -221 492 -459 587 -159 64
-133 62 -819 66 l-628 4 0 -1336z m540 841 c0 -2 -7 -9 -15 -16 -12 -10 -15
-10 -15 4 0 9 7 16 15 16 8 0 15 -2 15 -4z m782 -172 c32 -5 39 -11 50 -42 7
-20 12 -76 12 -124 -1 -77 -5 -95 -33 -152 -33 -68 -79 -113 -148 -144 -32
-14 -72 -17 -268 -17 l-230 0 -3 43 c-5 61 32 178 75 240 91 133 288 221 458
206 28 -3 67 -7 87 -10z"/>
<path d="M7590 10225 l0 -1335 219 0 219 0 12 -29 c18 -44 69 -91 130 -120
l55 -26 405 3 c602 4 690 15 730 86 14 24 13 29 -2 56 l-17 30 26 0 26 0 -6
182 c-4 99 -7 210 -7 245 l0 63 -536 0 -537 0 5 49 c11 113 109 239 232 300
85 41 171 59 353 71 159 11 228 28 260 63 29 32 33 51 18 81 -8 14 -10 26 -4
26 5 0 9 99 9 245 l0 245 -440 0 -440 0 0 33 c0 59 38 167 76 217 70 91 197
167 295 176 29 3 57 8 63 12 6 4 110 7 231 7 168 0 237 4 293 16 104 24 145
67 116 123 -11 22 -11 26 2 26 16 0 18 48 7 318 l-6 172 -894 0 -893 0 0
-1335z m535 835 c-3 -5 -10 -10 -16 -10 -5 0 -9 5 -9 10 0 6 7 10 16 10 8 0
12 -4 9 -10z"/>
<path d="M9770 10225 l0 -1335 231 0 c216 0 233 -1 256 -20 36 -28 88 -26 119
5 41 41 55 91 65 224 24 305 54 406 147 493 50 47 136 88 152 72 8 -9 164
-282 348 -609 l89 -160 143 -3 143 -3 50 -36 c82 -60 176 -57 199 7 8 24 16
29 48 32 l38 3 -156 270 -157 270 0 120 c0 107 3 127 26 180 21 49 129 217
167 261 26 30 97 151 114 197 57 149 69 365 28 507 -12 41 -23 80 -24 86 -1 7
-8 19 -15 28 -7 9 -10 16 -7 16 4 0 -19 37 -50 82 -31 45 -67 112 -80 150 -77
228 -233 389 -449 465 l-80 28 -672 3 -673 3 0 -1336z m1304 634 c75 -11 76
-12 82 -45 19 -100 -33 -258 -102 -310 -63 -48 -92 -53 -335 -54 l-227 0 -5
27 c-3 15 -1 35 4 45 5 9 9 25 9 35 0 41 53 130 107 180 118 112 270 151 467
122z"/>
<path d="M12696 11198 c-415 -1088 -796 -2083 -865 -2255 l-21 -53 278 0 278
0 16 48 16 47 1 -53 c1 -42 6 -58 26 -77 50 -50 120 -28 260 84 181 145 351
203 595 204 69 0 157 -5 197 -12 l71 -13 42 -114 42 -114 160 0 c140 0 163 -2
186 -19 39 -26 96 -43 119 -34 11 5 33 19 50 34 30 25 30 26 22 91 -21 174
-122 455 -325 898 -13 30 -26 65 -29 77 -2 12 -8 30 -13 40 -15 27 -100 267
-105 294 -7 37 -83 299 -135 469 -56 181 -123 294 -206 345 -9 6 -56 114 -105
240 l-89 230 -164 3 -164 2 -138 -362z m223 -778 c-49 -194 -167 -533 -209
-601 -32 -51 -4 43 106 360 70 199 128 360 130 359 1 -2 -11 -55 -27 -118z
m289 -325 c5 -16 30 -87 56 -157 l45 -128 -166 0 -166 0 6 45 c4 25 14 56 23
70 9 14 13 25 10 25 -4 0 2 17 13 38 20 38 100 121 136 140 23 12 28 8 43 -33z"/>
<path d="M13990 11315 l0 -245 249 0 c253 0 260 -1 239 -35 -10 -17 28 -88 61
-113 25 -18 66 -39 91 -47 3 -1 24 -7 48 -15 l42 -13 0 -979 0 -978 231 0
c216 0 233 -1 256 -20 36 -28 88 -26 119 5 66 66 74 150 74 849 0 676 10 776
85 911 62 111 158 181 320 235 184 60 234 114 181 193 l-26 38 0 229 0 230
-985 0 -985 0 0 -245z"/>
<path d="M16140 10225 l0 -1335 234 0 235 0 27 -25 c64 -59 148 -16 181 93 17
53 18 127 18 962 0 878 -1 907 -20 965 -11 33 -26 66 -33 73 -6 8 -17 22 -22
32 -6 11 -28 25 -50 31 l-40 12 0 264 0 263 -265 0 -265 0 0 -1335z"/>
<path d="M19480 10225 l0 -1336 276 1 c275 2 277 2 300 25 45 45 53 104 63
510 8 311 14 397 30 472 21 100 69 202 110 235 l26 20 302 -610 c165 -336 304
-620 308 -631 6 -20 13 -21 149 -21 l143 0 49 -46 c77 -71 136 -98 213 -96
121 3 203 69 231 188 18 73 16 297 -5 634 -8 129 -15 305 -15 390 0 85 -5 236
-10 335 -6 99 -14 254 -19 345 -8 169 -18 210 -52 210 -14 0 -30 -22 -42 -60
-3 -8 -6 162 -6 378 l-1 392 -240 0 -240 0 -1 -667 c-1 -368 -5 -780 -8 -918
l-6 -250 -40 42 c-31 32 -87 139 -244 465 -113 233 -305 627 -428 876 l-223
452 -310 0 -310 0 0 -1335z"/>
<path d="M1535 8449 c-134 -16 -272 -55 -384 -110 -90 -44 -117 -63 -191 -138
-98 -98 -154 -196 -191 -336 -31 -113 -31 -355 -1 -466 68 -255 244 -411 546
-486 56 -14 103 -29 106 -33 14 -21 135 -81 210 -104 132 -40 220 -64 284 -77
33 -6 67 -15 75 -20 9 -4 42 -15 73 -24 51 -14 57 -18 64 -48 13 -61 6 -146
-16 -193 -62 -127 -227 -193 -486 -194 -263 0 -489 66 -692 202 -45 31 -84 53
-86 49 -2 -3 -54 -95 -115 -204 -95 -168 -110 -201 -99 -214 22 -27 151 -109
247 -157 118 -60 265 -109 406 -136 61 -12 131 -32 156 -46 115 -59 398 -98
619 -83 209 13 325 47 446 129 25 16 49 30 53 30 18 0 124 128 152 182 61 121
86 287 63 411 -15 77 -62 183 -103 230 -19 21 -31 49 -35 82 -33 233 -155 393
-381 501 -104 50 -232 87 -470 138 -93 20 -199 44 -235 54 l-65 18 2 43 c7
151 186 313 393 357 119 25 403 -1 468 -44 23 -15 25 -15 37 1 7 9 17 17 23
17 23 0 62 24 68 42 3 10 -1 30 -10 43 -16 24 -13 30 53 170 l70 146 -54 34
c-144 93 -356 178 -533 215 -114 24 -347 34 -467 19z m191 -499 c-107 -23
-230 -80 -308 -143 -54 -45 -148 -170 -148 -198 0 -11 -2 -11 -10 1 -13 21
-12 110 1 151 45 134 203 206 459 207 l95 1 -89 -19z"/>
<path d="M16975 8449 c-343 -46 -598 -239 -714 -539 -63 -163 -64 -174 -68
-765 -3 -364 -1 -566 7 -620 59 -422 315 -705 702 -775 33 -6 86 -24 118 -41
126 -64 237 -89 393 -89 230 0 391 55 533 181 107 96 160 197 134 259 -23 57
-111 56 -191 -1 -17 -12 -28 -16 -23 -8 5 8 30 46 56 85 73 110 129 247 168
409 32 129 59 116 -241 113 l-262 -3 -16 -60 c-65 -238 -230 -366 -451 -352
-85 5 -188 35 -209 61 -6 7 -17 53 -25 102 -18 110 -17 740 2 789 6 17 18 60
27 97 64 260 274 438 516 438 78 0 78 0 95 -32 10 -18 27 -62 39 -98 l22 -65
154 -5 c120 -4 160 -9 179 -21 47 -31 97 -42 135 -29 67 22 71 64 25 222 -117
396 -352 647 -680 728 -99 24 -315 34 -425 19z m-40 -562 c-27 -20 -103 -97
-154 -157 l-22 -25 17 34 c22 46 100 129 144 151 47 25 52 24 15 -3z"/>
<path d="M19215 8454 c-87 -12 -157 -27 -215 -46 -277 -89 -488 -300 -578
-578 -56 -172 -62 -261 -53 -850 8 -473 9 -510 30 -585 76 -283 280 -504 555
-603 45 -16 101 -33 125 -37 25 -4 72 -22 105 -41 137 -74 299 -108 489 -102
215 8 359 57 503 172 116 93 178 181 248 358 59 147 83 375 51 484 -21 73 -63
134 -109 159 l-36 20 0 71 c0 39 -3 139 -7 222 l-6 152 -464 0 -463 0 0 -240
0 -240 108 0 c59 0 151 -3 205 -7 l98 -6 -6 -71 c-20 -226 -122 -362 -309
-412 -99 -26 -256 -15 -352 26 l-41 18 -14 99 c-18 127 -19 646 -1 750 41 245
147 406 325 493 137 67 314 80 339 24 10 -22 17 -24 84 -24 62 0 88 -6 161
-36 114 -47 196 -56 236 -24 15 12 27 30 27 41 0 14 7 19 25 19 32 0 32 16 -1
122 -84 265 -264 470 -519 589 -117 55 -225 79 -380 83 -71 3 -143 3 -160 0z
m-137 -614 c-26 -22 -63 -59 -83 -83 -38 -43 -38 -35 -1 17 19 26 114 106 126
106 3 0 -16 -18 -42 -40z"/>
<path d="M3785 8408 c-12 -40 -975 -2555 -1005 -2625 l-10 -23 278 0 277 0 32
88 c24 65 31 77 26 46 -7 -52 25 -129 57 -139 37 -12 87 4 147 48 96 70 185
124 248 153 92 40 239 74 351 81 108 6 283 -11 308 -31 8 -6 33 -64 56 -128
l43 -118 206 -2 c195 -2 333 1 339 7 1 1 -2 15 -9 31 -6 16 -17 64 -24 106 -8
43 -28 124 -46 180 -17 57 -31 104 -30 105 0 2 -11 33 -25 70 -14 38 -34 93
-44 123 -10 30 -61 147 -113 260 -101 219 -168 390 -212 535 -111 372 -191
572 -259 652 -42 48 -39 42 -162 358 l-93 240 -165 3 c-164 2 -165 2 -171 -20z
m130 -1055 c-31 -98 -72 -225 -91 -283 -47 -140 -153 -390 -166 -390 -6 0 -8
6 -6 13 3 6 72 204 154 439 94 270 152 421 157 412 5 -8 -15 -85 -48 -191z
m291 -496 l61 -172 -165 -3 c-91 -1 -167 0 -169 2 -3 2 1 31 7 63 13 63 48
139 87 191 23 31 98 92 112 92 3 0 34 -78 67 -173z"/>
<path d="M4970 8423 c0 -5 199 -605 442 -1335 l443 -1328 188 0 c179 0 189 -1
218 -22 23 -17 44 -23 83 -23 62 0 110 31 154 98 15 23 29 44 32 47 27 25 113
279 224 665 25 88 121 381 212 651 96 286 168 515 171 547 10 95 -12 137 -72
137 -84 0 -138 -100 -254 -470 -93 -298 -147 -455 -168 -490 -18 -32 -42 -106
240 747 134 406 247 748 251 761 l7 22 -262 -2 -262 -3 -18 -55 c-10 -30 -106
-329 -213 -665 -107 -335 -217 -677 -244 -760 l-49 -150 -41 86 c-38 79 -65
158 -216 629 -57 177 -93 258 -133 304 -14 16 -59 137 -118 321 l-97 295 -259
0 c-142 0 -259 -3 -259 -7z"/>
<path d="M7400 7095 l0 -1335 228 0 227 0 42 -49 c35 -40 53 -52 112 -71 78
-25 85 -25 596 -1 293 14 417 26 443 42 30 19 34 47 9 64 -20 14 -15 15 62 15
l84 0 -6 173 c-4 94 -7 205 -7 245 l0 72 -541 0 -542 0 5 43 c3 24 19 73 37
109 50 105 136 183 252 228 60 24 271 60 351 60 71 0 182 42 205 77 13 19 14
29 5 48 -10 22 -9 25 8 25 19 0 20 8 20 245 l0 245 -441 0 -441 0 7 53 c26
188 163 329 364 373 36 8 166 19 291 23 124 5 250 15 280 21 99 22 143 64 125
119 -5 15 -2 21 9 21 19 0 20 68 9 333 l-6 157 -894 0 -893 0 0 -1335z"/>
<path d="M10530 7095 l0 -1335 235 0 235 0 2 263 c1 234 2 246 7 109 5 -137 8
-155 25 -168 44 -32 52 -14 63 143 3 51 10 90 14 87 5 -3 9 20 9 50 0 31 4 75
10 98 5 24 18 90 28 148 21 112 52 206 81 241 19 24 11 46 186 -503 l56 -178
188 0 c163 0 190 -2 202 -17 19 -22 88 -53 122 -53 15 0 44 7 65 16 110 46
168 172 247 541 25 118 49 175 84 207 l21 19 0 -269 c0 -148 3 -374 7 -501 l6
-233 229 0 228 0 1 103 0 102 19 -42 c24 -54 52 -58 70 -10 6 17 16 40 21 49
5 10 9 64 10 120 0 57 5 139 10 183 5 44 14 215 18 380 5 165 14 388 21 496 6
108 12 290 13 405 2 176 -1 218 -16 267 -20 66 -71 129 -129 158 l-38 19 0
220 0 220 -335 0 -334 0 -15 -52 c-384 -1356 -459 -1618 -467 -1618 -21 0 -56
127 -94 345 -82 464 -158 704 -255 805 -41 43 -45 54 -111 279 -38 129 -69
236 -69 238 0 2 -151 3 -335 3 l-335 0 0 -1335z m1861 180 c-11 -60 -32 -184
-47 -275 -26 -168 -48 -236 -87 -278 -20 -22 -136 -87 -141 -80 -2 2 63 216
143 477 l146 474 3 -104 c2 -73 -3 -137 -17 -214z"/>
<path d="M13080 8424 c0 -6 182 -388 539 -1132 l241 -502 0 -515 0 -515 255 0
c251 0 255 0 255 21 0 16 4 19 20 14 30 -9 60 12 80 58 18 41 30 134 50 377 4
58 11 123 15 145 12 65 83 301 125 409 21 56 64 175 95 266 34 99 100 254 165
390 112 233 133 288 124 326 -6 25 -29 38 -47 27 -7 -4 -5 2 3 12 14 17 14 17
-5 7 -11 -5 -32 -23 -46 -39 -33 -35 -68 -90 -52 -80 20 13 -145 -323 -185
-376 -32 -43 -132 -131 -139 -123 -2 1 49 113 113 247 481 1011 464 976 464
983 0 3 -118 6 -263 6 l-263 0 -204 -457 c-112 -252 -225 -502 -250 -557 l-46
-98 -28 42 c-15 23 -87 176 -160 339 -73 163 -177 394 -231 514 l-97 217 -264
0 c-145 0 -264 -3 -264 -6z"/>
<path d="M20750 7095 l0 -1335 255 0 c152 0 255 4 255 9 0 6 20 13 43 16 33 5
48 13 60 34 18 31 41 150 57 300 20 179 60 273 163 373 53 53 162 110 252 133
33 8 125 20 205 26 247 17 396 55 506 130 63 43 146 139 186 215 55 104 69
166 70 301 1 165 -27 256 -131 433 -5 8 -18 55 -30 104 -55 239 -217 434 -434
523 -167 69 -139 66 -829 70 l-628 4 0 -1336z m1322 669 c32 -6 39 -12 50 -43
7 -20 12 -75 12 -123 -1 -77 -5 -95 -33 -152 -33 -68 -80 -113 -148 -143 -31
-15 -78 -18 -264 -21 -260 -4 -244 -11 -230 94 33 229 235 391 491 393 47 0
102 -2 122 -5z"/>
<path d="M23433 7902 c-111 -290 -276 -723 -368 -962 -91 -239 -227 -595 -302
-790 -75 -195 -138 -363 -141 -372 -4 -17 14 -18 270 -18 l273 0 40 115 c22
63 43 115 46 115 3 0 -1 -32 -9 -72 -13 -67 -13 -74 4 -106 10 -19 29 -38 41
-43 25 -9 80 -2 89 12 3 5 12 9 19 9 8 0 54 29 102 65 97 71 116 82 218 121
133 51 241 66 425 61 91 -2 173 -7 182 -11 10 -5 35 -59 64 -137 l47 -129 273
0 c151 0 274 2 274 5 0 3 -18 51 -39 107 -22 57 -44 128 -49 158 -18 94 -100
317 -189 510 -91 197 -235 559 -254 638 -7 26 -15 52 -19 57 -4 6 -17 46 -29
90 -45 168 -124 369 -172 437 -18 24 -96 216 -223 546 l-48 122 -161 0 -162 0
-202 -528z m371 -430 c-7 -18 -30 -88 -49 -155 -20 -67 -42 -135 -49 -152 -8
-16 -26 -68 -41 -115 -15 -47 -33 -94 -40 -105 -7 -11 -36 -75 -65 -142 -29
-68 -57 -123 -62 -123 -6 0 -8 6 -6 13 3 6 72 204 154 439 137 393 150 426
161 400 9 -21 8 -34 -3 -60z m240 -607 l64 -180 -170 -3 c-94 -1 -172 -1 -174
1 -10 9 19 118 46 175 32 68 101 156 140 177 14 7 26 12 27 11 1 -1 31 -83 67
-181z"/>
</g>
</svg>
