<?xml version="1.0" standalone="no"?>
<!DOCTYPE svg PUBLIC "-//W3C//DTD SVG 20010904//EN"
 "http://www.w3.org/TR/2001/REC-SVG-20010904/DTD/svg10.dtd">
<svg version="1.0" xmlns="http://www.w3.org/2000/svg"
 width="2550.000000pt" height="3300.000000pt" viewBox="0 0 2550.000000 3300.000000"
 preserveAspectRatio="xMidYMid meet">

<g transform="translate(0.000000,3300.000000) scale(0.100000,-0.100000)"
fill="#000000" stroke="none">
<path d="M12460 27654 c-1121 -36 -2158 -215 -3180 -549 -2058 -673 -3878
-1936 -5243 -3638 -1374 -1714 -2218 -3821 -2402 -5997 -53 -636 -53 -1304 0
-1940 160 -1896 836 -3780 1917 -5345 396 -574 806 -1064 1312 -1571 507 -506
997 -916 1571 -1312 1565 -1081 3449 -1757 5345 -1917 636 -53 1304 -53 1940
0 1896 160 3780 836 5345 1917 574 396 1064 806 1571 1312 416 417 699 741
1033 1186 1178 1569 1910 3378 2150 5310 62 500 84 860 84 1390 0 530 -22 890
-84 1390 -357 2876 -1825 5498 -4102 7323 -1812 1452 -4013 2293 -6352 2427
-189 10 -743 19 -905 14z m745 -894 c2155 -102 4157 -838 5843 -2147 570 -442
1124 -978 1591 -1538 1716 -2054 2558 -4697 2351 -7375 -192 -2475 -1279
-4802 -3053 -6536 -2148 -2100 -5047 -3144 -8047 -2899 -2734 224 -5256 1538
-7034 3665 -1534 1835 -2376 4162 -2376 6570 0 2288 755 4492 2157 6298 442
570 978 1124 1538 1591 1636 1366 3657 2188 5785 2351 374 29 883 37 1245 20z"/>
<path d="M16360 22080 c-1202 -100 -2113 -624 -2828 -1628 -99 -138 -196 -296
-374 -602 -472 -814 -1007 -1606 -1666 -2467 l-155 -203 -1388 0 -1389 0 2
-807 3 -808 659 -5 659 -5 -111 -83 c-383 -286 -787 -464 -1202 -529 -170 -26
-506 -23 -699 6 -169 26 -370 76 -507 126 -239 88 -540 260 -754 431 -136 108
-388 367 -478 488 -293 398 -426 842 -409 1366 11 335 68 575 203 858 303 637
952 1130 1692 1286 246 52 336 60 667 61 171 0 358 -4 418 -8 l107 -9 -2 1044
-3 1043 -375 -1 c-400 -1 -563 -11 -898 -60 -1056 -151 -1929 -574 -2582
-1251 -570 -589 -904 -1366 -1014 -2353 -54 -483 -45 -996 24 -1390 160 -906
653 -1773 1430 -2515 658 -628 1434 -998 2343 -1116 206 -27 699 -37 940 -20
1132 83 2037 488 2767 1237 230 236 883 1049 1380 1717 l95 128 3 -2551 2
-2550 835 0 835 0 0 3752 0 3751 132 206 c182 284 318 460 482 629 225 231
429 383 680 506 232 114 431 176 701 218 186 29 576 31 795 4 675 -82 1207
-333 1656 -781 156 -155 227 -243 319 -393 l54 -87 -287 -6 c-1506 -34 -2602
-374 -3236 -1003 -332 -329 -528 -719 -601 -1196 -23 -151 -31 -433 -16 -571
65 -594 349 -1088 810 -1410 l84 -59 -51 0 -52 0 0 -1045 0 -1045 584 0 c320
0 641 5 712 10 1127 89 2085 518 2934 1314 771 724 1169 1612 1287 2876 24
263 24 958 0 1220 -78 824 -274 1503 -602 2080 -156 274 -383 575 -610 809
-786 807 -1796 1261 -3065 1376 -203 19 -783 28 -940 15z m3080 -4863 c0 -369
-4 -656 -10 -705 -41 -322 -214 -663 -466 -915 -326 -328 -768 -507 -1247
-507 -230 0 -411 37 -584 120 -257 122 -420 297 -526 565 -63 159 -81 270 -81
505 0 175 3 220 23 310 165 771 946 1182 2361 1243 36 2 170 4 298 5 l232 2 0
-623z"/>
</g>
</svg>
