<?xml version="1.0" standalone="no"?>
<!DOCTYPE svg PUBLIC "-//W3C//DTD SVG 20010904//EN"
 "http://www.w3.org/TR/2001/REC-SVG-20010904/DTD/svg10.dtd">
<svg version="1.0" xmlns="http://www.w3.org/2000/svg"
 width="2550.000000pt" height="3300.000000pt" viewBox="0 0 2550.000000 3300.000000"
 preserveAspectRatio="xMidYMid meet">

<g transform="translate(0.000000,3300.000000) scale(0.100000,-0.100000)"
fill="#000000" stroke="none">
<path d="M12336 27650 c-2621 -102 -5042 -1077 -7019 -2828 -187 -166 -719
-698 -887 -887 -1024 -1155 -1785 -2464 -2260 -3885 -666 -1991 -758 -4150
-264 -6189 371 -1533 1098 -3030 2063 -4249 522 -660 753 -926 1155 -1328 561
-561 1116 -1015 1761 -1440 565 -372 1133 -676 1770 -947 1769 -753 3696
-1036 5625 -826 2302 250 4479 1220 6230 2775 316 280 788 764 1063 1088 1127
1331 1915 2862 2336 4541 404 1608 446 3348 121 4965 -348 1729 -1117 3377
-2224 4760 -281 351 -511 607 -850 945 -366 365 -642 609 -1051 928 -99 78
-243 190 -320 250 -967 755 -2105 1363 -3285 1757 -964 322 -1897 501 -2925
560 -255 14 -791 20 -1039 10z m1364 -1240 c1118 -77 2114 -304 3155 -720
1109 -442 2207 -1134 3065 -1931 386 -358 774 -767 961 -1014 38 -49 123 -160
190 -245 141 -180 316 -441 486 -725 755 -1258 1226 -2644 1393 -4100 178
-1546 -1 -3143 -515 -4594 -655 -1851 -1827 -3477 -3380 -4687 -1527 -1190
-3361 -1923 -5285 -2113 -841 -83 -1709 -61 -2553 65 -1382 206 -2699 693
-3893 1439 -621 388 -975 675 -1554 1261 -481 488 -848 937 -1222 1498 -258
388 -437 695 -642 1106 -155 312 -276 583 -356 800 -16 41 -49 131 -75 200
-84 226 -155 441 -226 691 -73 258 -170 655 -189 774 -6 39 -20 120 -31 180
-32 183 -47 282 -68 455 -38 312 -41 346 -51 540 -5 107 -13 215 -16 240 -15
108 -1 927 21 1225 15 197 65 656 75 690 5 17 17 86 26 155 70 538 250 1306
429 1836 25 73 45 139 45 148 0 20 107 318 182 506 17 41 32 82 33 92 4 18 37
97 141 333 31 72 70 162 86 200 33 81 181 375 227 453 17 29 31 58 31 64 0 11
94 177 203 358 38 63 78 130 88 148 10 18 97 151 193 295 398 599 936 1219
1501 1732 1079 980 2322 1704 3719 2167 668 221 1458 385 2186 452 134 13 340
27 580 40 127 7 887 -3 1040 -14z"/>
<path d="M16355 22079 c-1136 -85 -2046 -589 -2746 -1519 -117 -156 -248 -359
-412 -640 -543 -931 -1073 -1717 -1767 -2617 l-85 -110 -824 -6 c-453 -4
-1080 -7 -1393 -7 l-568 0 0 -810 0 -810 104 0 c112 0 116 -2 116 -58 0 -58
56 -207 89 -236 11 -10 19 -22 16 -26 -2 -4 16 -22 40 -39 25 -18 45 -36 45
-40 0 -4 16 -16 35 -27 19 -10 35 -24 35 -31 0 -7 5 -13 10 -13 67 0 -186 -86
-350 -119 -225 -45 -500 -57 -730 -31 -247 27 -530 102 -740 194 -185 82 -454
301 -637 520 -319 380 -483 835 -483 1339 0 327 68 631 206 912 177 364 485
696 855 921 222 136 528 260 769 314 52 11 122 27 155 35 68 16 211 38 395 60
262 31 331 45 398 79 122 63 193 171 217 333 39 258 44 891 11 1223 -27 264
-86 373 -246 447 l-59 28 -3 145 -3 145 -265 3 c-1330 16 -2412 -318 -3260
-1006 -142 -115 -436 -412 -544 -547 -574 -724 -855 -1695 -833 -2874 7 -379
36 -601 122 -941 149 -590 478 -1210 925 -1745 37 -44 106 -130 153 -191 294
-381 766 -818 1149 -1067 552 -358 1091 -557 1758 -648 196 -26 758 -38 987
-20 842 66 1540 304 2213 754 58 38 123 84 145 102 22 17 54 40 70 50 30 18
267 212 420 344 139 119 697 683 835 843 18 21 35 36 39 33 4 -2 29 17 55 44
43 44 51 48 94 47 l47 -1 3 -1952 2 -1953 149 0 148 0 27 -64 c49 -115 120
-177 248 -218 140 -43 592 -61 898 -34 270 24 378 78 458 227 70 131 107 498
136 1374 9 248 20 572 26 720 5 149 15 446 21 660 6 215 15 399 19 410 5 11
13 148 19 305 10 273 23 510 57 980 9 118 20 283 25 365 10 161 3 594 -11 660
-5 22 -14 132 -20 245 -6 113 -20 342 -30 510 -18 287 -29 755 -21 900 1 36
14 101 28 144 33 104 129 290 203 394 33 46 60 87 60 92 0 18 163 211 276 326
127 130 311 281 434 357 99 61 282 148 402 191 97 35 318 84 478 106 107 15
475 16 555 2 33 -6 103 -16 155 -23 52 -6 100 -15 105 -19 6 -4 42 -13 80 -19
120 -21 426 -120 453 -148 7 -7 18 -13 23 -13 17 0 233 -101 249 -116 8 -8 70
-49 138 -90 67 -41 122 -79 122 -83 0 -5 29 -30 65 -57 61 -44 157 -150 184
-201 6 -12 11 -35 11 -50 l0 -29 -247 -12 c-1334 -66 -2338 -397 -2932 -967
-345 -331 -546 -719 -628 -1210 -26 -157 -26 -588 0 -725 10 -52 24 -135 32
-185 7 -49 18 -91 24 -93 6 -2 11 -12 11 -22 0 -26 61 -264 69 -270 4 -3 20
-43 35 -90 16 -47 34 -92 41 -100 7 -8 24 -41 38 -72 14 -32 31 -63 37 -70 6
-7 38 -60 71 -118 34 -58 70 -113 80 -122 11 -9 41 -45 66 -80 62 -84 153
-191 219 -256 l54 -54 0 -949 0 -949 125 0 125 0 10 -27 c53 -145 141 -222
300 -262 228 -57 990 -52 1400 9 242 36 497 95 730 167 158 49 443 157 462
176 7 7 51 30 98 51 670 307 1364 857 1800 1426 205 267 320 460 496 835 44
94 106 262 158 430 21 66 46 147 56 180 47 150 93 362 121 560 11 77 25 156
30 175 15 57 30 242 59 705 7 111 6 244 -2 435 -6 151 -11 291 -10 310 3 57
-26 301 -59 500 -50 301 -116 570 -204 835 -46 135 -153 405 -170 425 -6 8
-49 87 -94 175 -46 88 -96 178 -113 200 -16 22 -65 94 -108 160 -44 66 -94
138 -112 161 -150 189 -210 258 -337 385 -267 266 -452 417 -791 645 -85 57
-204 140 -265 185 -612 447 -1480 760 -2345 843 -355 35 -796 45 -1065 25z
m2890 -4680 c58 -6 120 -20 148 -33 l49 -21 -5 -420 c-4 -378 -7 -429 -25
-510 -32 -141 -60 -221 -117 -342 -232 -489 -673 -836 -1200 -942 -224 -45
-469 -51 -654 -16 -108 21 -122 29 -205 111 -178 179 -272 412 -283 705 -9
236 14 376 93 566 125 300 349 511 721 677 175 79 426 152 648 190 218 37 650
55 830 35z"/>
</g>
</svg>
