<?xml version="1.0" standalone="no"?>
<!DOCTYPE svg PUBLIC "-//W3C//DTD SVG 20010904//EN"
 "http://www.w3.org/TR/2001/REC-SVG-20010904/DTD/svg10.dtd">
<svg version="1.0" xmlns="http://www.w3.org/2000/svg"
 width="2550.000000pt" height="3300.000000pt" viewBox="0 0 2550.000000 3300.000000"
 preserveAspectRatio="xMidYMid meet">

<g transform="translate(0.000000,3300.000000) scale(0.100000,-0.100000)"
fill="#000000" stroke="none">
<path d="M12405 27554 c-376 -27 -578 -50 -830 -94 -1828 -318 -3446 -1362
-4497 -2900 -634 -929 -1038 -2034 -1152 -3155 -176 -1722 299 -3438 1333
-4815 1128 -1503 2810 -2477 4661 -2699 315 -38 451 -46 830 -46 379 0 515 8
830 46 1851 222 3533 1196 4661 2699 890 1185 1369 2623 1369 4110 0 2612
-1473 4983 -3820 6150 -761 379 -1546 599 -2440 686 -154 15 -816 27 -945 18z
m780 -554 c1794 -130 3417 -988 4526 -2395 287 -363 491 -688 704 -1120 370
-751 573 -1505 635 -2360 13 -180 13 -670 0 -850 -102 -1410 -632 -2685 -1558
-3742 -145 -166 -463 -482 -624 -619 -1050 -899 -2324 -1420 -3696 -1514 -197
-13 -647 -13 -844 0 -1372 94 -2646 615 -3696 1514 -161 137 -479 453 -624
619 -926 1057 -1456 2332 -1558 3742 -13 180 -13 670 0 850 50 694 193 1316
450 1955 77 194 282 610 391 795 374 638 843 1194 1404 1665 1017 853 2269
1361 3600 1459 162 12 728 12 890 1z"/>
<path d="M14985 24134 c-457 -45 -793 -155 -1105 -361 -279 -184 -557 -478
-747 -790 -33 -54 -126 -208 -206 -343 -279 -469 -594 -932 -934 -1375 l-108
-140 -858 -3 -857 -2 2 -498 3 -497 404 -5 404 -5 -79 -56 c-232 -166 -435
-259 -670 -306 -122 -24 -391 -24 -529 1 -541 97 -1049 512 -1208 986 -51 154
-62 231 -62 440 0 215 12 292 67 450 158 451 599 817 1107 920 165 33 303 43
496 36 99 -3 189 -7 200 -9 20 -2 20 5 23 642 l2 644 -287 -6 c-207 -4 -331
-11 -439 -26 -557 -76 -998 -248 -1389 -544 -97 -74 -296 -266 -376 -363 -270
-329 -436 -749 -505 -1276 -21 -166 -30 -564 -15 -709 58 -550 276 -1030 684
-1504 439 -511 971 -813 1607 -912 146 -23 638 -26 795 -5 623 84 1115 319
1520 727 143 144 544 640 840 1038 l80 108 5 -1563 5 -1563 513 -3 512 -2 0
2306 0 2307 77 121 c212 329 389 515 634 661 318 188 735 243 1179 154 339
-68 649 -240 883 -489 66 -70 187 -234 187 -254 0 -3 -62 -6 -137 -6 -76 0
-203 -5 -283 -10 -816 -56 -1391 -258 -1745 -614 -258 -259 -376 -549 -379
-931 -1 -178 10 -259 56 -405 82 -258 227 -458 442 -609 l59 -41 -36 0 -37 0
2 -642 3 -643 390 1 c419 2 543 11 779 59 581 118 1085 399 1527 851 417 428
642 980 699 1717 15 192 8 661 -14 827 -91 722 -338 1266 -768 1692 -462 457
-1042 720 -1768 803 -129 15 -561 28 -645 19z m1873 -3046 c-5 -495 -5 -496
-99 -678 -171 -332 -470 -532 -853 -570 -269 -26 -487 40 -642 196 -78 78
-139 187 -171 304 -25 92 -25 358 0 450 118 429 548 665 1317 723 25 2 136 4
248 5 l203 2 -3 -432z"/>
<path d="M3764 12266 c-284 -46 -499 -180 -642 -399 -63 -96 -105 -203 -131
-334 -20 -94 -21 -136 -21 -618 0 -482 1 -524 21 -618 98 -485 482 -767 1009
-744 468 21 802 295 897 737 16 76 18 140 18 625 0 485 -2 549 -18 625 -82
377 -341 638 -712 715 -108 22 -319 28 -421 11z m309 -511 c152 -40 251 -134
298 -286 18 -56 19 -99 19 -554 0 -455 -1 -498 -19 -554 -46 -149 -148 -248
-296 -287 -59 -16 -192 -18 -255 -3 -110 25 -224 114 -274 213 -51 101 -56
152 -56 631 0 471 5 527 52 624 48 101 159 189 273 217 70 17 190 17 258 -1z"/>
<path d="M17894 12266 c-284 -46 -499 -180 -642 -399 -63 -96 -105 -203 -131
-334 -20 -94 -21 -136 -21 -618 0 -482 1 -524 21 -618 98 -485 482 -767 1009
-744 468 21 802 295 897 737 16 76 18 140 18 625 0 485 -2 549 -18 625 -82
377 -341 638 -712 715 -108 22 -319 28 -421 11z m309 -511 c152 -40 251 -134
298 -286 18 -56 19 -99 19 -554 0 -455 -1 -498 -19 -554 -46 -149 -148 -248
-296 -287 -59 -16 -192 -18 -255 -3 -110 25 -224 114 -274 213 -51 101 -56
152 -56 631 0 471 5 527 52 624 48 101 159 189 273 217 70 17 190 17 258 -1z"/>
<path d="M5350 10915 l0 -1335 255 0 255 0 0 514 0 514 358 5 c386 5 422 10
566 65 215 84 385 272 446 494 38 141 43 341 10 483 -54 236 -228 440 -451
528 -155 62 -139 60 -816 64 l-623 4 0 -1336z m1225 818 c55 -30 110 -89 137
-148 26 -59 31 -201 10 -276 -21 -71 -78 -139 -147 -174 l-59 -30 -328 -3
-328 -3 0 331 0 331 338 -3 c324 -3 339 -4 377 -25z"/>
<path d="M7590 10915 l0 -1335 895 0 895 0 0 245 0 245 -640 0 -640 0 0 295 0
295 540 0 540 0 0 245 0 245 -540 0 -540 0 0 305 0 305 640 0 640 0 0 245 0
245 -895 0 -895 0 0 -1335z"/>
<path d="M9770 10915 l0 -1335 255 0 255 0 0 535 0 536 152 -3 152 -3 297
-530 297 -530 307 -3 c245 -2 306 0 302 10 -3 7 -145 254 -316 548 -297 511
-310 535 -288 544 126 49 195 92 277 175 95 96 151 193 190 331 31 108 38 332
15 455 -54 291 -220 486 -490 576 l-70 24 -667 3 -668 3 0 -1336z m1252 818
c51 -28 92 -77 119 -143 23 -57 19 -234 -7 -290 -28 -61 -68 -107 -118 -133
-40 -21 -52 -22 -388 -25 l-348 -3 0 311 0 310 346 0 346 0 50 -27z"/>
<path d="M12330 10929 c-278 -727 -506 -1327 -508 -1335 -3 -12 39 -14 268
-12 l272 3 59 170 c32 94 66 189 75 213 l16 42 486 -2 487 -3 74 -212 75 -213
273 0 273 0 -9 23 c-5 12 -232 605 -504 1317 -273 712 -499 1303 -502 1313 -6
15 -24 17 -169 17 l-161 0 -505 -1321z m830 5 c82 -236 150 -432 150 -436 0
-5 -142 -8 -316 -8 -284 0 -316 2 -310 16 3 9 74 211 158 450 94 267 155 429
160 420 4 -7 75 -206 158 -442z"/>
<path d="M13992 12008 l3 -243 363 -3 362 -2 0 -1090 0 -1090 255 0 255 0 0
1090 0 1090 363 2 362 3 3 243 2 242 -985 0 -985 0 2 -242z"/>
<path d="M16140 10915 l0 -1335 265 0 265 0 0 1335 0 1335 -265 0 -265 0 0
-1335z"/>
<path d="M19480 10915 l0 -1335 245 0 245 0 2 950 3 950 465 -947 466 -948
312 -3 312 -2 0 1335 0 1335 -240 0 -240 0 -2 -972 -3 -972 -471 969 -471 970
-312 3 -311 2 0 -1335z"/>
<path d="M1535 9149 c-134 -16 -272 -55 -384 -110 -90 -44 -117 -63 -191 -138
-98 -98 -154 -196 -191 -336 -31 -114 -31 -355 0 -468 56 -210 178 -343 401
-434 96 -40 195 -63 455 -109 324 -56 427 -97 483 -193 23 -40 27 -57 27 -126
-1 -95 -21 -141 -86 -199 -98 -89 -228 -121 -469 -113 -136 4 -183 10 -269 32
-142 37 -253 85 -366 160 -52 34 -97 60 -99 56 -2 -3 -54 -95 -116 -204 -129
-230 -129 -204 -1 -286 277 -177 610 -263 966 -248 342 14 561 94 736 267 96
96 143 175 181 305 20 70 23 102 23 245 -1 184 -12 245 -68 360 -41 84 -158
204 -249 254 -111 62 -312 125 -523 166 -146 28 -324 74 -374 98 -119 55 -171
130 -171 247 0 82 21 134 71 182 132 124 446 151 719 62 78 -26 222 -96 286
-139 26 -17 48 -30 49 -28 2 2 50 98 109 215 l105 212 -62 39 c-153 97 -346
175 -525 212 -114 24 -347 34 -467 19z"/>
<path d="M16985 9149 c-102 -13 -219 -45 -301 -84 -264 -122 -423 -344 -479
-669 -22 -131 -22 -1073 0 -1202 40 -229 119 -388 257 -520 134 -128 281 -196
498 -229 562 -86 977 203 1124 783 14 55 26 108 26 116 0 14 -30 16 -259 16
l-258 0 -28 -86 c-48 -147 -130 -249 -244 -303 -51 -24 -67 -26 -176 -26 -144
1 -206 21 -285 92 -59 53 -94 109 -123 196 -20 58 -21 88 -25 513 -4 496 2
576 52 679 76 154 228 235 420 223 182 -12 330 -148 390 -360 l17 -58 259 0
c241 0 260 1 260 18 0 28 -47 205 -73 273 -61 160 -137 280 -247 389 -200 197
-480 280 -805 239z"/>
<path d="M19180 9150 c-105 -15 -238 -58 -329 -106 -229 -121 -375 -311 -449
-583 l-26 -96 -4 -549 c-3 -591 -1 -626 48 -779 42 -132 107 -236 209 -337
169 -167 376 -251 652 -267 507 -27 881 230 1007 696 25 94 26 105 30 459 l3
362 -465 0 -466 0 0 -240 0 -240 206 0 207 0 -7 -86 c-15 -194 -91 -315 -246
-388 -57 -27 -78 -31 -171 -34 -59 -2 -130 1 -159 7 -165 36 -290 159 -319
316 -14 76 -15 886 -1 975 23 148 132 292 257 341 72 27 212 37 292 19 128
-28 247 -117 288 -215 l18 -45 273 0 c152 0 272 4 272 9 0 33 -59 199 -95 270
-132 256 -367 436 -648 497 -87 19 -288 26 -377 14z"/>
<path d="M3290 7809 c-278 -727 -506 -1327 -508 -1335 -3 -12 39 -14 268 -12
l272 3 59 170 c32 94 66 189 75 213 l16 42 486 -2 487 -3 74 -212 75 -213 273
0 273 0 -9 23 c-5 12 -232 605 -504 1317 -273 712 -499 1303 -502 1313 -6 15
-24 17 -169 17 l-161 0 -505 -1321z m830 5 c82 -236 150 -432 150 -436 0 -5
-142 -8 -316 -8 -284 0 -316 2 -310 16 3 9 74 211 158 450 94 267 155 429 160
420 4 -7 75 -206 158 -442z"/>
<path d="M4970 9123 c0 -5 199 -605 443 -1336 l442 -1327 199 2 199 3 439
1315 c241 723 441 1323 444 1333 5 16 -10 17 -257 15 l-262 -3 -281 -882
c-154 -485 -283 -877 -287 -870 -6 11 -531 1656 -551 1725 l-9 32 -259 0
c-143 0 -260 -3 -260 -7z"/>
<path d="M7400 7795 l0 -1335 895 0 895 0 0 245 0 245 -640 0 -640 0 0 295 0
295 540 0 540 0 0 245 0 245 -540 0 -540 0 0 305 0 305 640 0 640 0 0 245 0
245 -895 0 -895 0 0 -1335z"/>
<path d="M10530 7795 l0 -1335 230 0 230 0 1 918 c0 578 4 910 10 897 5 -11
113 -351 240 -755 127 -404 235 -743 240 -753 9 -16 28 -17 227 -15 l217 3 21
65 c12 36 123 391 245 790 l224 725 3 -937 2 -938 230 0 230 0 0 1335 0 1335
-334 0 c-310 0 -335 -1 -340 -17 -3 -10 -113 -403 -246 -873 -132 -470 -244
-866 -248 -879 -6 -17 -40 93 -136 430 -70 250 -184 653 -253 897 l-126 442
-333 0 -334 0 0 -1335z"/>
<path d="M13083 9118 c2 -7 178 -376 391 -819 l386 -807 0 -516 0 -516 255 0
255 0 0 516 0 515 390 814 c215 448 390 817 390 820 0 3 -118 5 -263 5 l-263
0 -253 -571 c-232 -521 -255 -569 -266 -548 -7 13 -122 270 -255 572 l-243
547 -265 0 c-207 0 -263 -3 -259 -12z"/>
<path d="M20750 7795 l0 -1335 255 0 255 0 0 514 0 514 358 5 c386 5 422 10
566 65 215 84 385 272 446 494 38 141 43 341 10 483 -54 236 -228 440 -451
528 -155 62 -139 60 -816 64 l-623 4 0 -1336z m1225 818 c55 -30 110 -89 137
-148 26 -59 31 -201 10 -276 -21 -71 -78 -139 -147 -174 l-59 -30 -328 -3
-328 -3 0 331 0 331 338 -3 c324 -3 339 -4 377 -25z"/>
<path d="M23130 7809 c-278 -727 -506 -1327 -508 -1335 -3 -12 39 -14 268 -12
l272 3 59 170 c32 94 66 189 75 213 l16 42 486 -2 487 -3 74 -212 75 -213 273
0 273 0 -9 23 c-5 12 -232 605 -504 1317 -273 712 -499 1303 -502 1313 -6 15
-24 17 -169 17 l-161 0 -505 -1321z m830 5 c82 -236 150 -432 150 -436 0 -5
-142 -8 -316 -8 -284 0 -316 2 -310 16 3 9 74 211 158 450 94 267 155 429 160
420 4 -7 75 -206 158 -442z"/>
</g>
</svg>
